<?xml version="1.0" encoding="UTF-8"?>
<svg xmlns="http://www.w3.org/2000/svg" viewBox="0 0 16 16"><g transform="matrix(.04235 0 0 .04193 12.359-25.862)" fill="#60aae5" stroke="#4f96d1"><g fill="#fff" stroke="none"><path transform="matrix(.7872 0 0 .79524 415.34 430.11)" d="m-884.1 294.78c-4.626 0-8.349 3.718-8.349 8.335v119.41l468.19 1v-79.2c0-4.618-3.724-8.335-8.35-8.335h-272.65c-8.51.751-9.607-.377-13.812-5.981-5.964-7.968-14.969-21.443-20.84-29.21-4.712-6.805-5.477-6.02-13.292-6.02z" color="#000"/><path d="m.588 4.07c-.178 0-.32.142-.32.32v9.199c0 .178.142.32.32.32h14.824c.178 0 .32-.142.32-.32v-9.199c0-.178-.142-.32-.32-.32h-14.824m6.912 2.33h1v2h2v1h-2v2h-1v-2h-2v-1h2v-2" transform="matrix(23.61017 0 0 23.85134-291.8 616.81)"/></g><rect transform="matrix(.7872 0 0 .79524 415.34 430.11)" y="356.85" x="-890.28" height="295.13" width="463.85" fill="none" stroke="#fff" stroke-linejoin="round" stroke-linecap="round" stroke-width="5.376" rx="9.63"/></g></svg>