<?xml version="1.0" encoding="UTF-8" standalone="no"?>
<!-- Generator: Adobe Illustrator 15.1.0, SVG Export Plug-In . SVG Version: 6.00 Build 0)  -->

<svg
   xmlns:dc="http://purl.org/dc/elements/1.1/"
   xmlns:cc="http://creativecommons.org/ns#"
   xmlns:rdf="http://www.w3.org/1999/02/22-rdf-syntax-ns#"
   xmlns:svg="http://www.w3.org/2000/svg"
   xmlns="http://www.w3.org/2000/svg"
   xmlns:sodipodi="http://sodipodi.sourceforge.net/DTD/sodipodi-0.dtd"
   xmlns:inkscape="http://www.inkscape.org/namespaces/inkscape"
   version="1.1"
   x="0px"
   y="0px"
   width="24px"
   height="24px"
   viewBox="0 0 24 24"
   style="enable-background:new 0 0 24 24;"
   xml:space="preserve"
   id="svg2"
   inkscape:version="0.48.4 r9939"
   sodipodi:docname="VisualEditor_-_Icon_-_Advanced.svg"><metadata
     id="metadata12"><rdf:RDF><cc:Work
         rdf:about=""><dc:format>image/svg+xml</dc:format><dc:type
           rdf:resource="http://purl.org/dc/dcmitype/StillImage" /><dc:title></dc:title></cc:Work></rdf:RDF></metadata><defs
     id="defs10" /><sodipodi:namedview
     pagecolor="#ffffff"
     bordercolor="#666666"
     borderopacity="1"
     objecttolerance="10"
     gridtolerance="10"
     guidetolerance="10"
     inkscape:pageopacity="0"
     inkscape:pageshadow="2"
     inkscape:window-width="1366"
     inkscape:window-height="691"
     id="namedview8"
     showgrid="false"
     inkscape:zoom="9.8333333"
     inkscape:cx="12"
     inkscape:cy="12"
     inkscape:window-x="0"
     inkscape:window-y="24"
     inkscape:window-maximized="1"
     inkscape:current-layer="svg2" /><g
     id="Icons"
     style="opacity:1;fill:#ffffff"><g
       id="settings"
       style="fill:#ffffff"><path
         id="gear"
         style="fill-rule:evenodd;clip-rule:evenodd;fill:#ffffff"
         d="M20.869,13.476C20.948,12.994,21,12.504,21,12    s-0.052-0.994-0.131-1.476l-2.463-0.259c-0.149-0.556-0.367-1.082-0.648-1.57l1.558-1.924c-0.576-0.806-1.281-1.511-2.087-2.087    l-1.924,1.558c-0.488-0.281-1.015-0.499-1.57-0.648l-0.259-2.463C12.994,3.052,12.504,3,12,3s-0.994,0.052-1.476,0.131    l-0.259,2.463C9.71,5.743,9.184,5.961,8.695,6.242L6.771,4.685C5.966,5.261,5.261,5.966,4.685,6.771l1.558,1.924    c-0.281,0.488-0.499,1.015-0.648,1.57l-2.463,0.259C3.052,11.006,3,11.496,3,12s0.052,0.994,0.131,1.476l2.463,0.259    c0.149,0.556,0.367,1.082,0.648,1.57l-1.558,1.924c0.576,0.806,1.281,1.511,2.087,2.087l1.924-1.558    c0.488,0.281,1.015,0.499,1.57,0.648l0.259,2.463C11.006,20.948,11.496,21,12,21s0.994-0.052,1.476-0.131l0.259-2.463    c0.556-0.149,1.082-0.367,1.57-0.648l1.924,1.558c0.806-0.576,1.511-1.281,2.087-2.087l-1.558-1.924    c0.281-0.488,0.499-1.015,0.648-1.57L20.869,13.476z M12,15.998c-2.209,0-3.998-1.789-3.998-3.998S9.791,8.002,12,8.002    S15.998,9.791,15.998,12S14.209,15.998,12,15.998z" /></g></g><g
     id="Guides"
     style="display:none;" /></svg>